<svg width="34" height="34" viewBox="0 0 34 34" fill="none" xmlns="http://www.w3.org/2000/svg">
<path d="M14.6266 6.11619C15.2306 3.62794 18.7694 3.62794 19.3734 6.11619C19.7637 7.72357 21.6052 8.48636 23.0177 7.6257C25.2043 6.29339 27.7066 8.79566 26.3743 10.9823C25.5136 12.3948 26.2764 14.2363 27.8838 14.6266C30.3721 15.2306 30.3721 18.7694 27.8838 19.3734C26.2764 19.7637 25.5136 21.6052 26.3743 23.0177C27.7066 25.2043 25.2043 27.7066 23.0177 26.3743C21.6052 25.5136 19.7637 26.2764 19.3734 27.8838C18.7694 30.3721 15.2306 30.3721 14.6266 27.8838C14.2363 26.2764 12.3948 25.5136 10.9823 26.3743C8.79566 27.7066 6.29339 25.2043 7.6257 23.0177C8.48637 21.6052 7.72357 19.7637 6.11619 19.3734C3.62794 18.7694 3.62794 15.2306 6.11619 14.6266C7.72357 14.2363 8.48636 12.3948 7.6257 10.9823C6.29339 8.79566 8.79566 6.29338 10.9823 7.6257C12.3948 8.48636 14.2363 7.72357 14.6266 6.11619Z" stroke="#BEBBBB" stroke-width="2" stroke-linecap="round" stroke-linejoin="round"/>
<path d="M21.25 17C21.25 19.3472 19.3472 21.25 17 21.25C14.6528 21.25 12.75 19.3472 12.75 17C12.75 14.6528 14.6528 12.75 17 12.75C19.3472 12.75 21.25 14.6528 21.25 17Z" stroke="#BEBBBB" stroke-width="2" stroke-linecap="round" stroke-linejoin="round"/>
</svg>
