<svg width="34" height="34" viewBox="0 0 34 34" fill="none" xmlns="http://www.w3.org/2000/svg">
<path d="M12.7499 7.08333H9.91659C8.35178 7.08333 7.08325 8.35186 7.08325 9.91667V26.9167C7.08325 28.4815 8.35178 29.75 9.91659 29.75H24.0833C25.6481 29.75 26.9166 28.4815 26.9166 26.9167V9.91667C26.9166 8.35186 25.6481 7.08333 24.0833 7.08333H21.2499M12.7499 7.08333C12.7499 8.64814 14.0184 9.91667 15.5833 9.91667H18.4166C19.9814 9.91667 21.2499 8.64814 21.2499 7.08333M12.7499 7.08333C12.7499 5.51853 14.0184 4.25 15.5833 4.25H18.4166C19.9814 4.25 21.2499 5.51853 21.2499 7.08333M16.9999 17H21.2499M16.9999 22.6667H21.2499M12.7499 17H12.7641M12.7499 22.6667H12.7641" stroke="#BEBBBB" stroke-width="2" stroke-linecap="round"/>
</svg>
