<svg width="34" height="34" viewBox="0 0 34 34" fill="none" xmlns="http://www.w3.org/2000/svg">
<path d="M5.66675 8.49996C5.66675 6.93515 6.93527 5.66663 8.50008 5.66663H11.3334C12.8982 5.66663 14.1667 6.93515 14.1667 8.49996V11.3333C14.1667 12.8981 12.8982 14.1666 11.3334 14.1666H8.50008C6.93527 14.1666 5.66675 12.8981 5.66675 11.3333V8.49996Z" stroke="#BEBBBB" stroke-width="2" stroke-linecap="round" stroke-linejoin="round"/>
<path d="M19.8334 8.49996C19.8334 6.93515 21.1019 5.66663 22.6667 5.66663H25.5001C27.0649 5.66663 28.3334 6.93515 28.3334 8.49996V11.3333C28.3334 12.8981 27.0649 14.1666 25.5001 14.1666H22.6667C21.1019 14.1666 19.8334 12.8981 19.8334 11.3333V8.49996Z" stroke="#BEBBBB" stroke-width="2" stroke-linecap="round" stroke-linejoin="round"/>
<path d="M5.66675 22.6666C5.66675 21.1018 6.93527 19.8333 8.50008 19.8333H11.3334C12.8982 19.8333 14.1667 21.1018 14.1667 22.6666V25.5C14.1667 27.0648 12.8982 28.3333 11.3334 28.3333H8.50008C6.93527 28.3333 5.66675 27.0648 5.66675 25.5V22.6666Z" stroke="#BEBBBB" stroke-width="2" stroke-linecap="round" stroke-linejoin="round"/>
<path d="M19.8334 22.6666C19.8334 21.1018 21.1019 19.8333 22.6667 19.8333H25.5001C27.0649 19.8333 28.3334 21.1018 28.3334 22.6666V25.5C28.3334 27.0648 27.0649 28.3333 25.5001 28.3333H22.6667C21.1019 28.3333 19.8334 27.0648 19.8334 25.5V22.6666Z" stroke="#BEBBBB" stroke-width="2" stroke-linecap="round" stroke-linejoin="round"/>
</svg>
