<svg width="34" height="34" viewBox="0 0 34 34" fill="none" xmlns="http://www.w3.org/2000/svg">
<path d="M28.1563 10.625C27.4208 10.625 26.7018 10.8431 26.0902 11.2517C25.4787 11.6603 25.002 12.2411 24.7206 12.9206C24.4391 13.6002 24.3655 14.3479 24.509 15.0692C24.6524 15.7906 25.0066 16.4532 25.5267 16.9733C26.0468 17.4934 26.7094 17.8476 27.4308 17.991C28.1521 18.1345 28.8998 18.0609 29.5794 17.7794C30.2589 17.498 30.8397 17.0213 31.2483 16.4098C31.6569 15.7982 31.875 15.0793 31.875 14.3438C31.875 13.3575 31.4832 12.4116 30.7858 11.7142C30.0884 11.0168 29.1425 10.625 28.1563 10.625ZM28.1563 15.9375C27.841 15.9375 27.5329 15.844 27.2708 15.6689C27.0087 15.4938 26.8044 15.2449 26.6838 14.9537C26.5632 14.6624 26.5316 14.342 26.5931 14.0328C26.6546 13.7237 26.8064 13.4397 27.0293 13.2168C27.2522 12.9939 27.5362 12.8421 27.8453 12.7806C28.1545 12.7191 28.4749 12.7507 28.7662 12.8713C29.0574 12.9919 29.3063 13.1962 29.4814 13.4583C29.6565 13.7204 29.75 14.0285 29.75 14.3438C29.75 14.7664 29.5821 15.1718 29.2832 15.4707C28.9843 15.7696 28.5789 15.9375 28.1563 15.9375ZM9.5625 14.3438C9.5625 13.6083 9.3444 12.8893 8.93578 12.2777C8.52716 11.6662 7.94637 11.1895 7.26686 10.9081C6.58734 10.6266 5.83963 10.553 5.11826 10.6965C4.39689 10.8399 3.73428 11.1941 3.2142 11.7142C2.69412 12.2343 2.33995 12.8969 2.19646 13.6183C2.05297 14.3396 2.12661 15.0873 2.40807 15.7669C2.68954 16.4464 3.16618 17.0272 3.77773 17.4358C4.38927 17.8444 5.10825 18.0625 5.84375 18.0625C6.83003 18.0625 7.7759 17.6707 8.47331 16.9733C9.17071 16.2759 9.5625 15.33 9.5625 14.3438ZM5.84375 15.9375C5.52854 15.9375 5.2204 15.844 4.95831 15.6689C4.69622 15.4938 4.49195 15.2449 4.37132 14.9537C4.25069 14.6624 4.21913 14.342 4.28063 14.0328C4.34212 13.7237 4.49391 13.4397 4.7168 13.2168C4.93969 12.9939 5.22367 12.8421 5.53283 12.7806C5.84198 12.7191 6.16243 12.7507 6.45365 12.8713C6.74487 12.9919 6.99378 13.1962 7.16891 13.4583C7.34403 13.7204 7.4375 14.0285 7.4375 14.3438C7.4375 14.7664 7.26959 15.1718 6.9707 15.4707C6.67182 15.7696 6.26644 15.9375 5.84375 15.9375ZM12.2188 11.6875C12.9543 11.6875 13.6732 11.4694 14.2848 11.0608C14.8963 10.6522 15.373 10.0714 15.6544 9.39186C15.9359 8.71234 16.0095 7.96463 15.866 7.24326C15.7226 6.52189 15.3684 5.85927 14.8483 5.3392C14.3282 4.81912 13.6656 4.46495 12.9442 4.32146C12.2229 4.17797 11.4752 4.25161 10.7956 4.53307C10.1161 4.81454 9.53535 5.29118 9.12672 5.90272C8.7181 6.51427 8.5 7.23325 8.5 7.96875C8.5 8.95503 8.8918 9.9009 9.5892 10.5983C10.2866 11.2957 11.2325 11.6875 12.2188 11.6875ZM12.2188 6.375C12.534 6.375 12.8421 6.46847 13.1042 6.6436C13.3663 6.81872 13.5706 7.06763 13.6912 7.35885C13.8118 7.65007 13.8434 7.97052 13.7819 8.27968C13.7204 8.58883 13.5686 8.87281 13.3457 9.0957C13.1228 9.31859 12.8388 9.47038 12.5297 9.53188C12.2205 9.59337 11.9001 9.56181 11.6089 9.44118C11.3176 9.32056 11.0687 9.11628 10.8936 8.85419C10.7185 8.5921 10.625 8.28397 10.625 7.96875C10.625 7.54606 10.7929 7.14069 11.0918 6.8418C11.3907 6.54291 11.7961 6.375 12.2188 6.375ZM21.7813 11.6875C22.5168 11.6875 23.2357 11.4694 23.8473 11.0608C24.4588 10.6522 24.9355 10.0714 25.2169 9.39186C25.4984 8.71234 25.572 7.96463 25.4286 7.24326C25.2851 6.52189 24.9309 5.85927 24.4108 5.3392C23.8907 4.81912 23.2281 4.46495 22.5067 4.32146C21.7854 4.17797 21.0377 4.25161 20.3582 4.53307C19.6786 4.81454 19.0978 5.29118 18.6892 5.90272C18.2806 6.51427 18.0625 7.23325 18.0625 7.96875C18.0625 8.95503 18.4543 9.9009 19.1517 10.5983C19.8491 11.2957 20.795 11.6875 21.7813 11.6875ZM21.7813 6.375C22.0965 6.375 22.4046 6.46847 22.6667 6.6436C22.9288 6.81872 23.1331 7.06763 23.2537 7.35885C23.3743 7.65007 23.4059 7.97052 23.3444 8.27968C23.2829 8.58883 23.1311 8.87281 22.9082 9.0957C22.6853 9.31859 22.4013 9.47038 22.0922 9.53188C21.783 9.59337 21.4626 9.56181 21.1714 9.44118C20.8801 9.32056 20.6312 9.11628 20.4561 8.85419C20.281 8.5921 20.1875 8.28397 20.1875 7.96875C20.1875 7.54606 20.3554 7.14069 20.6543 6.8418C20.9532 6.54291 21.3586 6.375 21.7813 6.375ZM24.8519 19.7705C24.3122 19.4727 23.8365 19.0715 23.452 18.5897C23.0676 18.108 22.7819 17.5551 22.6113 16.9628C22.2581 15.7479 21.52 14.6805 20.5082 13.9209C19.4963 13.1614 18.2652 12.7508 17 12.7508C15.7348 12.7508 14.5037 13.1614 13.4919 13.9209C12.48 14.6805 11.742 15.7479 11.3887 16.9628C11.0474 18.1546 10.2474 19.1624 9.16406 19.7652C8.12483 20.3275 7.30273 21.2202 6.8278 22.3022C6.35286 23.3842 6.25219 24.5936 6.54171 25.7392C6.83124 26.8848 7.49442 27.9012 8.42639 28.6276C9.35835 29.354 10.5059 29.7489 11.6875 29.75C12.3956 29.752 13.0968 29.6106 13.7488 29.3343C15.8274 28.4771 18.1607 28.4771 20.2393 29.3343C21.4983 29.8819 22.9204 29.9208 24.2074 29.4428C25.4945 28.9649 26.5465 28.0072 27.143 26.7707C27.7395 25.5341 27.8341 24.1146 27.4069 22.8098C26.9798 21.505 26.0641 20.4163 24.8519 19.7718V19.7705ZM22.3125 27.625C21.8811 27.6254 21.4541 27.5382 21.0574 27.3687C18.4551 26.2938 15.5329 26.2938 12.9306 27.3687C12.1744 27.6943 11.3215 27.7146 10.5506 27.4255C9.77968 27.1363 9.15058 26.56 8.79505 25.8174C8.43952 25.0747 8.38515 24.2233 8.64334 23.4415C8.90152 22.6597 9.45222 22.0081 10.1801 21.6232C10.9627 21.191 11.6524 20.6088 12.2098 19.9099C12.7672 19.2109 13.1814 18.409 13.4287 17.5498C13.6532 16.7763 14.1228 16.0966 14.7669 15.613C15.4109 15.1293 16.1946 14.8678 17 14.8678C17.8054 14.8678 18.5891 15.1293 19.2332 15.613C19.8772 16.0966 20.3468 16.7763 20.5713 17.5498C20.8194 18.4106 21.2349 19.2139 21.7939 19.9138C22.353 20.6137 23.0446 21.1964 23.8292 21.6285C24.4559 21.9646 24.9522 22.5006 25.2391 23.1512C25.5261 23.8018 25.5872 24.5297 25.4129 25.2191C25.2385 25.9085 24.8386 26.5198 24.2768 26.9557C23.715 27.3917 23.0236 27.6273 22.3125 27.625Z" fill="#BEBBBB"/>
</svg>
