<svg width="34" height="34" viewBox="0 0 34 34" fill="none" xmlns="http://www.w3.org/2000/svg">
<path d="M29.2188 21.25C29.2188 21.5652 29.1253 21.8733 28.9502 22.1354C28.775 22.3975 28.5261 22.6018 28.2349 22.7224C27.9437 22.8431 27.6232 22.8746 27.3141 22.8131C27.0049 22.7516 26.7209 22.5998 26.498 22.377C26.2752 22.1541 26.1234 21.8701 26.0619 21.5609C26.0004 21.2518 26.0319 20.9313 26.1526 20.6401C26.2732 20.3489 26.4775 20.1 26.7396 19.9248C27.0017 19.7497 27.3098 19.6562 27.625 19.6562C28.0477 19.6562 28.4531 19.8242 28.752 20.123C29.0508 20.4219 29.2188 20.8273 29.2188 21.25ZM28.6145 26.4682C28.3811 27.9727 27.6178 29.3444 26.4623 30.3358C25.3068 31.3271 23.835 31.873 22.3125 31.875H19.125C17.4348 31.8732 15.8143 31.201 14.6191 30.0059C13.424 28.8107 12.7518 27.1902 12.75 25.5V20.1198C10.6961 19.861 8.80722 18.8616 7.43785 17.3091C6.06848 15.7565 5.31276 13.7576 5.3125 11.6875V5.3125C5.3125 5.03071 5.42444 4.76046 5.6237 4.5612C5.82296 4.36194 6.09321 4.25 6.375 4.25H9.5625C9.84429 4.25 10.1145 4.36194 10.3138 4.5612C10.5131 4.76046 10.625 5.03071 10.625 5.3125C10.625 5.59429 10.5131 5.86454 10.3138 6.0638C10.1145 6.26306 9.84429 6.375 9.5625 6.375H7.4375V11.6875C7.43742 12.5319 7.60509 13.3679 7.93077 14.1469C8.25644 14.9259 8.73364 15.6325 9.33464 16.2256C9.93565 16.8187 10.6485 17.2865 11.4318 17.6018C12.2151 17.9172 13.0532 18.0738 13.8975 18.0625C17.3652 18.0173 20.1875 15.1074 20.1875 11.5773V6.375H18.0625C17.7807 6.375 17.5105 6.26306 17.3112 6.0638C17.1119 5.86454 17 5.59429 17 5.3125C17 5.03071 17.1119 4.76046 17.3112 4.5612C17.5105 4.36194 17.7807 4.25 18.0625 4.25H21.25C21.5318 4.25 21.802 4.36194 22.0013 4.5612C22.2006 4.76046 22.3125 5.03071 22.3125 5.3125V11.5773C22.3125 15.9388 19.0546 19.5845 14.875 20.1184V25.5C14.875 26.6272 15.3228 27.7082 16.1198 28.5052C16.9168 29.3022 17.9978 29.75 19.125 29.75H22.3125C23.2776 29.7484 24.2136 29.419 24.9669 28.8157C25.7203 28.2124 26.2464 27.3711 26.4589 26.4297C25.1757 26.1415 24.0451 25.3875 23.2857 24.3137C22.5263 23.2399 22.1923 21.9226 22.3481 20.6167C22.504 19.3108 23.1387 18.1092 24.1295 17.2443C25.1202 16.3794 26.3966 15.9127 27.7116 15.9346C29.0266 15.9565 30.2867 16.4653 31.2481 17.3627C32.2095 18.2601 32.8039 19.4822 32.9163 20.7925C33.0286 22.1029 32.6509 23.4083 31.8563 24.4563C31.0616 25.5042 29.9065 26.2202 28.6145 26.4655V26.4682ZM30.8125 21.25C30.8125 20.6196 30.6256 20.0033 30.2753 19.4791C29.9251 18.9549 29.4272 18.5464 28.8448 18.3051C28.2624 18.0639 27.6215 18.0008 27.0031 18.1237C26.3848 18.2467 25.8169 18.5503 25.3711 18.9961C24.9253 19.4419 24.6217 20.0098 24.4987 20.6281C24.3758 21.2465 24.4389 21.8874 24.6801 22.4698C24.9214 23.0522 25.3299 23.5501 25.8541 23.9003C26.3783 24.2506 26.9946 24.4375 27.625 24.4375C28.4704 24.4375 29.2811 24.1017 29.8789 23.5039C30.4767 22.9061 30.8125 22.0954 30.8125 21.25Z" fill="#BEBBBB"/>
</svg>
